<svg width="40" height="40" viewBox="0 0 40 40" fill="none" xmlns="http://www.w3.org/2000/svg">
<path d="M20 3.74451C16.0425 3.74467 12.2141 5.15303 9.19994 7.71759C6.18577 10.2821 4.1825 13.8355 3.54855 17.742C2.9146 21.6484 3.69136 25.653 5.73983 29.0391C7.7883 32.4252 10.9748 34.972 14.7292 36.2237C15.5625 36.3695 15.875 35.8695 15.875 35.432C15.875 35.0362 15.8542 33.7237 15.8542 32.3278C11.6667 33.0987 10.5833 31.3071 10.25 30.3696C9.88012 29.4578 9.29379 28.6498 8.54166 28.0153C7.95833 27.7028 7.12499 26.932 8.52081 26.9112C9.05379 26.969 9.56497 27.1545 10.011 27.4519C10.4571 27.7492 10.8249 28.1498 11.0833 28.6195C11.3113 29.029 11.6178 29.3895 11.9853 29.6803C12.3528 29.9712 12.7741 30.1866 13.225 30.3143C13.676 30.4421 14.1477 30.4796 14.6131 30.4247C15.0786 30.3698 15.5286 30.2236 15.9375 29.9945C16.0096 29.1472 16.3872 28.355 17 27.7654C13.2917 27.3487 9.41666 25.9112 9.41666 19.5362C9.39324 17.8798 10.0045 16.2772 11.125 15.0571C10.6155 13.6174 10.6751 12.0375 11.2917 10.6404C11.2917 10.6404 12.6874 10.2029 15.875 12.3487C18.6021 11.5987 21.4812 11.5987 24.2083 12.3487C27.3958 10.1821 28.7917 10.6404 28.7917 10.6404C29.4083 12.0375 29.4679 13.6174 28.9583 15.0571C30.0822 16.2751 30.694 17.8791 30.6667 19.5362C30.6667 25.932 26.7708 27.3487 23.0625 27.7654C23.4602 28.1685 23.7666 28.6525 23.9607 29.1846C24.1548 29.7166 24.2322 30.2842 24.1875 30.8487C24.1875 33.0779 24.1666 34.8695 24.1666 35.4321C24.1666 35.8696 24.4791 36.3904 25.3125 36.2237C29.0603 34.9618 32.2376 32.4091 34.2773 29.0213C36.3171 25.6334 37.0865 21.6309 36.4481 17.7282C35.8098 13.8256 33.8053 10.2768 30.7924 7.71536C27.7796 5.15392 23.9545 3.74657 20 3.74451Z" fill="black"/>
</svg>
