<svg width="34" height="34" viewBox="0 0 34 34" fill="none" xmlns="http://www.w3.org/2000/svg">
<path d="M25.9 6.09998C25.5044 6.09998 25.1178 6.21728 24.7889 6.43704C24.46 6.6568 24.2036 6.96916 24.0523 7.33461C23.9009 7.70007 23.8613 8.1022 23.9384 8.49016C24.0156 8.87812 24.2061 9.23449 24.4858 9.51419C24.7655 9.7939 25.1219 9.98438 25.5098 10.0616C25.8978 10.1387 26.2999 10.0991 26.6654 9.94774C27.0308 9.79636 27.3432 9.54002 27.563 9.21112C27.7827 8.88222 27.9 8.49554 27.9 8.09998C27.9 7.56955 27.6893 7.06084 27.3142 6.68577C26.9392 6.31069 26.4304 6.09998 25.9 6.09998ZM33.5667 10.1333C33.5343 8.75048 33.2753 7.38232 32.8 6.08331C32.3762 4.97187 31.7167 3.96544 30.8667 3.13331C30.0414 2.27902 29.0326 1.62361 27.9167 1.21665C26.6211 0.726914 25.2514 0.461996 23.8667 0.433313C22.1 0.333313 21.5333 0.333313 17 0.333313C12.4667 0.333313 11.9 0.333313 10.1333 0.433313C8.7486 0.461996 7.37892 0.726914 6.08334 1.21665C4.96947 1.62773 3.96157 2.28258 3.13334 3.13331C2.27905 3.95861 1.62364 4.96738 1.21668 6.08331C0.726945 7.37888 0.462027 8.74857 0.433343 10.1333C0.333343 11.9 0.333344 12.4666 0.333344 17C0.333344 21.5333 0.333343 22.1 0.433343 23.8666C0.462027 25.2514 0.726945 26.6211 1.21668 27.9166C1.62364 29.0326 2.27905 30.0414 3.13334 30.8666C3.96157 31.7174 4.96947 32.3722 6.08334 32.7833C7.37892 33.273 8.7486 33.538 10.1333 33.5667C11.9 33.6666 12.4667 33.6666 17 33.6666C21.5333 33.6666 22.1 33.6666 23.8667 33.5667C25.2514 33.538 26.6211 33.273 27.9167 32.7833C29.0326 32.3764 30.0414 31.7209 30.8667 30.8666C31.7204 30.0376 32.3806 29.0303 32.8 27.9166C33.2753 26.6176 33.5343 25.2495 33.5667 23.8666C33.5667 22.1 33.6667 21.5333 33.6667 17C33.6667 12.4666 33.6667 11.9 33.5667 10.1333ZM30.5667 23.6666C30.5545 24.7246 30.3629 25.7728 30 26.7666C29.7339 27.492 29.3065 28.1474 28.75 28.6833C28.2094 29.2342 27.5554 29.6607 26.8333 29.9333C25.8395 30.2962 24.7913 30.4878 23.7333 30.5C22.0667 30.5833 21.45 30.6 17.0667 30.6C12.6833 30.6 12.0667 30.6 10.4 30.5C9.3015 30.5205 8.20767 30.3514 7.16668 30C6.47631 29.7134 5.85227 29.288 5.33334 28.75C4.78016 28.2146 4.35808 27.5586 4.10001 26.8333C3.6931 25.8252 3.46742 24.7532 3.43334 23.6666C3.43334 22 3.33334 21.3833 3.33334 17C3.33334 12.6166 3.33334 12 3.43334 10.3333C3.44081 9.25174 3.63826 8.17989 4.01668 7.16665C4.31009 6.46317 4.76045 5.83608 5.33334 5.33331C5.8397 4.76026 6.46549 4.30514 7.16668 3.99998C8.1826 3.63339 9.25334 3.44178 10.3333 3.43331C12 3.43331 12.6167 3.33331 17 3.33331C21.3833 3.33331 22 3.33331 23.6667 3.43331C24.7246 3.44545 25.7729 3.63706 26.7667 3.99998C27.5241 4.28107 28.2038 4.73806 28.75 5.33331C29.2962 5.84528 29.7229 6.4712 30 7.16665C30.3704 8.18154 30.5622 9.25295 30.5667 10.3333C30.65 12 30.6667 12.6166 30.6667 17C30.6667 21.3833 30.65 22 30.5667 23.6666ZM17 8.44998C15.3097 8.45327 13.6583 8.95752 12.2544 9.89901C10.8506 10.8405 9.75731 12.177 9.11273 13.7396C8.46816 15.3022 8.30122 17.0208 8.633 18.6782C8.96478 20.3356 9.7804 21.8575 10.9768 23.0516C12.1732 24.2457 13.6967 25.0583 15.3548 25.3869C17.0129 25.7155 18.7311 25.5452 20.2925 24.8975C21.8538 24.2499 23.1881 23.154 24.1269 21.7484C25.0656 20.3427 25.5667 18.6903 25.5667 17C25.5689 15.8752 25.3487 14.761 24.9187 13.7216C24.4888 12.6822 23.8576 11.738 23.0615 10.9434C22.2653 10.1488 21.3199 9.51944 20.2797 9.09153C19.2394 8.66361 18.1248 8.44558 17 8.44998ZM17 22.55C15.9023 22.55 14.8293 22.2245 13.9166 21.6146C13.0039 21.0048 12.2925 20.138 11.8725 19.1239C11.4524 18.1097 11.3425 16.9938 11.5567 15.9172C11.7708 14.8406 12.2994 13.8517 13.0756 13.0755C13.8517 12.2994 14.8407 11.7708 15.9173 11.5566C16.9939 11.3425 18.1098 11.4524 19.1239 11.8724C20.138 12.2925 21.0048 13.0039 21.6147 13.9166C22.2245 14.8293 22.55 15.9023 22.55 17C22.55 17.7288 22.4065 18.4505 22.1275 19.1239C21.8486 19.7972 21.4398 20.4091 20.9245 20.9244C20.4091 21.4398 19.7973 21.8486 19.1239 22.1275C18.4505 22.4064 17.7288 22.55 17 22.55Z" fill="black"/>
</svg>
