<svg width="94" height="30" viewBox="0 0 94 30" fill="none" xmlns="http://www.w3.org/2000/svg">
<path d="M3.623 3.448V6.187C4.514 6.121 5.57 6.088 6.56 6.088C8.375 6.088 17.648 6.088 19.496 6.088C20.618 6.088 21.773 6.121 22.532 6.187V3.448C21.74 3.547 20.585 3.613 19.562 3.613C17.615 3.613 8.342 3.613 6.56 3.613C5.504 3.613 4.481 3.547 3.623 3.448ZM24.974 12.127L23.093 10.972C22.73 11.137 22.004 11.236 21.245 11.236C19.562 11.236 5.504 11.236 3.887 11.236C2.963 11.236 1.841 11.137 0.653 11.038V13.81C1.841 13.711 3.095 13.678 3.887 13.678C5.867 13.678 19.76 13.678 21.377 13.678C20.783 16.087 19.463 18.892 17.483 20.971C14.645 23.941 10.52 26.086 5.867 27.043L7.913 29.386C12.104 28.198 16.262 26.284 19.694 22.489C22.169 19.783 23.654 16.351 24.512 13.117C24.578 12.853 24.809 12.457 24.974 12.127ZM53.9227 2.293L52.1737 3.052C53.0647 4.306 54.1867 6.286 54.8137 7.606L56.6287 6.814C55.9357 5.494 54.7477 3.481 53.9227 2.293ZM57.5527 0.972998L55.8037 1.732C56.7277 2.953 57.8167 4.834 58.5427 6.253L60.2917 5.461C59.6977 4.24 58.4107 2.194 57.5527 0.972998ZM35.8387 18.1C34.7167 20.839 32.8357 24.304 30.7567 27.076L33.5617 28.264C35.4097 25.591 37.2247 22.192 38.4457 19.189C39.8317 15.79 40.9867 10.906 41.4157 8.86C41.5807 8.167 41.8117 7.177 42.0427 6.451L39.1057 5.857C38.6437 9.652 37.2907 14.668 35.8387 18.1ZM52.1077 16.846C53.4607 20.344 55.0117 24.832 55.8367 28.165L58.7737 27.241C57.8827 24.238 56.1337 19.189 54.8137 15.922C53.3947 12.457 51.2827 7.903 49.9957 5.494L47.3227 6.385C48.7417 8.86 50.7877 13.447 52.1077 16.846ZM70.8123 3.844L68.8983 5.857C71.3733 7.474 75.4653 11.038 77.1483 12.754L79.1943 10.642C77.3793 8.827 73.1223 5.395 70.8123 3.844ZM67.9743 25.954L69.6903 28.66C75.2013 27.637 79.3593 25.591 82.6923 23.512C87.6753 20.377 91.5033 15.889 93.7473 11.797L92.1633 8.959C90.2493 13.051 86.2563 17.935 81.1413 21.136C78.0063 23.083 73.7163 25.096 67.9743 25.954Z" fill="black"/>
</svg>
