<svg width="50" height="50" viewBox="0 0 50 50" fill="none" xmlns="http://www.w3.org/2000/svg">
<path d="M25.0001 27.0833C25.5526 27.0833 26.0825 26.8638 26.4732 26.4731C26.8639 26.0824 27.0834 25.5525 27.0834 25V4.16664C27.0834 3.61411 26.8639 3.08421 26.4732 2.69351C26.0825 2.30281 25.5526 2.08331 25.0001 2.08331C24.4475 2.08331 23.9176 2.30281 23.5269 2.69351C23.1362 3.08421 22.9167 3.61411 22.9167 4.16664V25C22.9167 25.5525 23.1362 26.0824 23.5269 26.4731C23.9176 26.8638 24.4475 27.0833 25.0001 27.0833Z" fill="black"/>
<path d="M34.5626 6.47917C34.0708 6.22501 33.4983 6.1766 32.9708 6.3446C32.4434 6.5126 32.0043 6.88325 31.7501 7.37501C31.4959 7.86676 31.4475 8.43934 31.6155 8.96679C31.7835 9.49424 32.1542 9.93334 32.6459 10.1875C35.9656 11.9014 38.6132 14.681 40.1637 18.08C41.7142 21.4791 42.0777 25.3006 41.1958 28.931C40.3139 32.5615 38.2379 35.7903 35.3008 38.0993C32.3638 40.4083 28.7361 41.6636 25.0001 41.6636C21.2641 41.6636 17.6364 40.4083 14.6994 38.0993C11.7623 35.7903 9.68626 32.5615 8.8044 28.931C7.92253 25.3006 8.28601 21.4791 9.83651 18.08C11.387 14.681 14.0346 11.9014 17.3543 10.1875C17.5978 10.0617 17.8141 9.88908 17.9909 9.67963C18.1677 9.47018 18.3015 9.22796 18.3847 8.96679C18.4679 8.70563 18.4988 8.43063 18.4757 8.15752C18.4526 7.8844 18.3759 7.6185 18.2501 7.37501C18.1242 7.13152 17.9517 6.9152 17.7422 6.7384C17.5328 6.5616 17.2905 6.42779 17.0294 6.3446C16.7682 6.26142 16.4932 6.23049 16.2201 6.25358C15.947 6.27667 15.6811 6.35332 15.4376 6.47917C11.289 8.62248 7.9808 12.0974 6.04378 16.3462C4.10677 20.595 3.65331 25.3713 4.75616 29.9087C5.85902 34.4461 8.45424 38.4815 12.1253 41.3672C15.7965 44.2529 20.3306 45.8216 25.0001 45.8216C29.6696 45.8216 34.2037 44.2529 37.8749 41.3672C41.546 38.4815 44.1412 34.4461 45.244 29.9087C46.3469 25.3713 45.8934 20.595 43.9564 16.3462C42.0194 12.0974 38.7112 8.62248 34.5626 6.47917Z" fill="black"/>
</svg>
