<svg width="40" height="40" viewBox="0 0 40 40" fill="none" xmlns="http://www.w3.org/2000/svg">
<path d="M36.3333 9.251C35.0806 9.79449 33.7557 10.1538 32.4 10.3177C33.8303 9.4632 34.9021 8.11897 35.4167 6.53433C34.0726 7.33444 32.6013 7.89816 31.0667 8.201C30.0409 7.08862 28.6749 6.34816 27.183 6.09575C25.6911 5.84334 24.1576 6.09326 22.823 6.80632C21.4884 7.51937 20.4282 8.65522 19.8087 10.0357C19.1892 11.4162 19.0455 12.9633 19.4 14.4343C16.6824 14.2969 14.0241 13.5893 11.5978 12.3574C9.17145 11.1256 7.03141 9.39716 5.31667 7.28433C4.71523 8.33461 4.3992 9.52404 4.4 10.7343C4.39787 11.8583 4.6737 12.9654 5.20293 13.9569C5.73216 14.9485 6.49836 15.7939 7.43333 16.4177C6.34663 16.3881 5.28314 16.0965 4.33333 15.5677V15.651C4.34148 17.2258 4.89332 18.7495 5.89552 19.9643C6.89773 21.1791 8.28876 22.0104 9.83333 22.3177C9.23876 22.4986 8.62146 22.594 8 22.601C7.56982 22.596 7.1407 22.557 6.71667 22.4843C7.15652 23.839 8.0077 25.0229 9.15179 25.8713C10.2959 26.7196 11.676 27.1903 13.1 27.2177C10.6953 29.1098 7.72647 30.1424 4.66667 30.151C4.10956 30.1528 3.55289 30.1194 3 30.051C6.12405 32.0681 9.76469 33.1389 13.4833 33.1343C16.0495 33.161 18.5952 32.676 20.9719 31.7078C23.3485 30.7396 25.5084 29.3075 27.3253 27.4952C29.1423 25.6828 30.5799 23.5267 31.5543 21.1525C32.5286 18.7784 33.0201 16.2339 33 13.6677C33 13.3843 33 13.0843 33 12.7843C34.3078 11.809 35.4358 10.6134 36.3333 9.251Z" fill="black"/>
</svg>
