<svg width="50" height="50" viewBox="0 0 50 50" fill="none" xmlns="http://www.w3.org/2000/svg">
<path d="M21.6168 42.0898L21.6133 45.8984H28.3867L28.3832 42.0898H21.6168Z" fill="black"/>
<path d="M21.6182 40.7227H28.382L28.3628 19.4336H21.6374L21.6182 40.7227Z" fill="black"/>
<path d="M22.2769 18.0664H27.7231L25 14.2251L22.2769 18.0664Z" fill="black"/>
<path d="M21.261 6.5332C21.2476 6.53633 21.2344 6.54014 21.221 6.54297H7.91016V7.91016H17.4902C15.2858 9.03932 13.3679 10.6562 11.8822 12.6378C10.3964 14.6195 9.382 16.9138 8.91602 19.3463L10.259 19.603C10.7976 16.7921 12.1331 14.1954 14.1062 12.1222C16.0794 10.0491 18.607 8.58695 21.3879 7.91016H21.582V6.54297H21.2633L21.261 6.5332ZM40.9708 19.4473C40.5186 16.9945 39.5087 14.6785 38.0191 12.6781C36.5295 10.6777 34.6 9.04637 32.3798 7.91016H42.0898V6.54297H28.647C28.6335 6.53984 28.6203 6.53604 28.6069 6.5332L28.6046 6.54297H28.418V7.35352L28.3002 7.86514C28.3397 7.87422 28.3783 7.88467 28.418 7.89443V7.91016H28.4801C31.2773 8.58905 33.8182 10.0631 35.7961 12.1544C37.774 14.2456 39.1042 16.8647 39.6263 19.6954L40.9708 19.4473Z" fill="black"/>
<path d="M42.9688 20.2148H38.2812V24.9023H42.9688V20.2148Z" fill="black"/>
<path d="M11.6211 20.2148H6.93359V24.9023H11.6211V20.2148Z" fill="black"/>
<path d="M24.934 9.48739C25.4689 9.48739 25.9917 9.32879 26.4365 9.03163C26.8812 8.73448 27.2278 8.31213 27.4325 7.81798C27.6372 7.32384 27.6907 6.78009 27.5864 6.25551C27.482 5.73093 27.2245 5.24907 26.8463 4.87087C26.4681 4.49267 25.9862 4.23511 25.4616 4.13076C24.937 4.02641 24.3933 4.07997 23.8991 4.28465C23.405 4.48933 22.9826 4.83595 22.6855 5.28067C22.3883 5.72539 22.2297 6.24823 22.2297 6.78309C22.2305 7.50007 22.5157 8.18746 23.0227 8.69444C23.5297 9.20142 24.2171 9.48659 24.934 9.48739V9.48739Z" fill="black"/>
<path d="M7.12891 5.37109H3.71094V8.88672H7.12891V5.37109Z" fill="black"/>
<path d="M46.2891 5.37109H42.8711V8.88672H46.2891V5.37109Z" fill="black"/>
</svg>
